<svg xmlns="http://www.w3.org/2000/svg" viewBox="0 0 560 320" font-family="Segoe UI, Helvetica, Arial, sans-serif">
  <rect width="560" height="320" fill="#fafafa"/>
  <text x="16" y="24" font-size="14" font-weight="700" fill="#1a1a1a">Circuit 1 - Transistor Switches a Heavier Load</text>
  <line x1="40" y1="50" x2="480" y2="50" stroke="#c62828" stroke-width="2"/>
  <text x="490" y="54" font-size="13" font-weight="700" fill="#c62828">+5V</text>

  <line x1="100" y1="50" x2="100" y2="80" stroke="#222" stroke-width="2"/>
  <circle cx="100" cy="85" r="3" fill="#222"/>
  <line x1="100" y1="85" x2="125" y2="70" stroke="#222" stroke-width="2"/>
  <circle cx="130" cy="85" r="3" fill="#222"/>
  <text x="95" y="105" font-size="10" fill="#333">Button</text>
  <line x1="130" y1="85" x2="160" y2="85" stroke="#222" stroke-width="2"/>
  <path d="M160 85 H170 L175 73 L185 97 L195 73 L205 97 L210 85 H220" fill="none" stroke="#222" stroke-width="2"/>
  <text x="165" y="115" font-size="10" fill="#333">10k ohm</text>
  <line x1="220" y1="85" x2="220" y2="180" stroke="#222" stroke-width="2"/>
  <text x="145" y="160" font-size="10" fill="#1565c0">Base (small signal)</text>

  <line x1="360" y1="50" x2="360" y2="70" stroke="#222" stroke-width="2"/>
  <path d="M360 70 L360 78 L348 83 L372 93 L348 103 L360 108 L360 116" fill="none" stroke="#222" stroke-width="2"/>
  <text x="378" y="95" font-size="10" fill="#333">220 ohm</text>
  <line x1="360" y1="116" x2="360" y2="130" stroke="#222" stroke-width="2"/>
  <polygon points="345,130 375,130 360,150" fill="none" stroke="#222" stroke-width="2"/>
  <line x1="345" y1="150" x2="375" y2="150" stroke="#222" stroke-width="2.5"/>
  <text x="382" y="145" font-size="10" fill="#333">LED A</text>
  <line x1="360" y1="150" x2="360" y2="165" stroke="#222" stroke-width="2"/>
  <path d="M360 165 L360 173 L348 178 L372 188 L348 198 L360 203 L360 211" fill="none" stroke="#222" stroke-width="2"/>
  <text x="378" y="190" font-size="10" fill="#333">220 ohm</text>
  <line x1="360" y1="211" x2="360" y2="225" stroke="#222" stroke-width="2"/>
  <polygon points="345,225 375,225 360,245" fill="none" stroke="#222" stroke-width="2"/>
  <line x1="345" y1="245" x2="375" y2="245" stroke="#222" stroke-width="2.5"/>
  <text x="382" y="240" font-size="10" fill="#333">LED B</text>
  <line x1="360" y1="245" x2="360" y2="265" stroke="#222" stroke-width="2"/>
  <text x="370" y="262" font-size="10" fill="#1565c0">Collector (bigger current)</text>

  <circle cx="280" cy="265" r="30" fill="#fafafa" stroke="#222" stroke-width="2"/>
  <line x1="220" y1="180" x2="220" y2="265" stroke="#222" stroke-width="2"/>
  <line x1="220" y1="265" x2="250" y2="265" stroke="#222" stroke-width="2"/>
  <line x1="250" y1="250" x2="250" y2="280" stroke="#222" stroke-width="3"/>
  <line x1="250" y1="255" x2="280" y2="240" stroke="#222" stroke-width="2"/>
  <line x1="250" y1="275" x2="280" y2="290" stroke="#222" stroke-width="2"/>
  <polygon points="272,285 280,290 270,293" fill="#222"/>
  <line x1="360" y1="265" x2="310" y2="250" stroke="#222" stroke-width="2"/>
  <text x="200" y="255" font-size="11" fill="#333">Q1</text>
  <line x1="280" y1="290" x2="280" y2="305" stroke="#222" stroke-width="2"/>
  <line x1="265" y1="305" x2="295" y2="305" stroke="#222" stroke-width="2.5"/>
  <line x1="268" y1="311" x2="292" y2="311" stroke="#222" stroke-width="2"/>
  <text x="302" y="310" font-size="12" fill="#333">GND</text>
</svg>
