<svg xmlns="http://www.w3.org/2000/svg" viewBox="0 0 560 160" font-family="Segoe UI, Helvetica, Arial, sans-serif">
  <rect width="560" height="160" fill="#fafafa"/>
  <text x="16" y="24" font-size="14" font-weight="700" fill="#1a1a1a">Circuit 4 - Potentiometer Dimmer (rheostat)</text>
  <text x="16" y="80" font-size="13" font-weight="700" fill="#c62828">+5V</text>
  <line x1="48" y1="76" x2="90" y2="76" stroke="#222" stroke-width="2"/>
  <path d="M90 76 H100 L105 64 L115 88 L125 64 L135 88 L145 64 L150 76 H160" fill="none" stroke="#222" stroke-width="2"/>
  <line x1="125" y1="50" x2="125" y2="72" stroke="#222" stroke-width="2"/>
  <polygon points="125,72 119,62 131,62" fill="#222"/>
  <path d="M160 76 Q170 50 125 50" fill="none" stroke="#666" stroke-width="1.5" stroke-dasharray="3 2"/>
  <text x="95" y="110" font-size="11" fill="#333">10k ohm pot</text>
  <text x="95" y="125" font-size="10" fill="#666">(unused end jumpered to wiper)</text>
  <line x1="160" y1="76" x2="200" y2="76" stroke="#222" stroke-width="2"/>
  <path d="M200 76 H210 L215 64 L225 88 L235 64 L245 88 L255 64 L260 76 H270" fill="none" stroke="#222" stroke-width="2"/>
  <text x="215" y="110" font-size="11" fill="#333">220 ohm</text>
  <line x1="270" y1="76" x2="300" y2="76" stroke="#222" stroke-width="2"/>
  <polygon points="300,64 300,88 325,76" fill="none" stroke="#222" stroke-width="2"/>
  <line x1="325" y1="64" x2="325" y2="88" stroke="#222" stroke-width="2.5"/>
  <line x1="332" y1="58" x2="344" y2="46" stroke="#222" stroke-width="1.5"/>
  <line x1="336" y1="62" x2="348" y2="50" stroke="#222" stroke-width="1.5"/>
  <text x="300" y="110" font-size="11" fill="#333">LED</text>
  <line x1="325" y1="76" x2="390" y2="76" stroke="#222" stroke-width="2"/>
  <line x1="390" y1="76" x2="390" y2="100" stroke="#222" stroke-width="2"/>
  <line x1="375" y1="100" x2="405" y2="100" stroke="#222" stroke-width="2.5"/>
  <line x1="379" y1="106" x2="401" y2="106" stroke="#222" stroke-width="2"/>
  <line x1="383" y1="112" x2="397" y2="112" stroke="#222" stroke-width="2"/>
  <text x="412" y="108" font-size="12" fill="#333">GND</text>
</svg>
